<svg width="30" height="30" viewBox="0 0 30 30" fill="none" xmlns="http://www.w3.org/2000/svg">
<path d="M14.1475 15.6812H9.8875V13.295H14.15V15.6825L14.1475 15.6812ZM18.41 0V7.5H25.91L18.41 0ZM20.1137 13.295H15.8512V15.6825H20.1137V13.295ZM20.1137 17.3862H15.8512V19.7738H20.1137V17.3862ZM25.9087 8.125V27.955C25.9087 29.085 24.9937 30 23.8637 30H6.13625C5.86769 30 5.60177 29.9471 5.35366 29.8443C5.10555 29.7416 4.88011 29.5909 4.69021 29.401C4.3067 29.0175 4.09125 28.4974 4.09125 27.955V2.045C4.09125 0.915 5.00625 0 6.13625 0H17.7837V8.125H25.9087ZM21.8175 11.5912H8.18125V21.4775H21.8187V11.59L21.8175 11.5912ZM14.1475 17.3862H9.8875V19.7738H14.15V17.3862H14.1475Z" fill="#2DAA7A"/>
</svg>
